<svg version="1.1" xmlns="http://www.w3.org/2000/svg" xmlns:xlink="http://www.w3.org/1999/xlink" x="0px" y="0px"
     viewBox="0 0 500 500" style="enable-background:new 0 0 500 500;" xml:space="preserve">
<style type="text/css">
	.st0{fill:url(#SVGID_1_);}
	.st1{display:none;fill:#FFFFFF;}
	.st2{display:none;fill:none;}
	.st3{fill:#FFFFFF;}
</style>
    <g id="Ebene_1">

		<linearGradient id="SVGID_1_" gradientUnits="userSpaceOnUse" x1="-288.422" y1="789.922" x2="-287.422" y2="789.922" gradientTransform="matrix(500 0 0 -500 144211 395211)">
		<stop  offset="0" style="stop-color:#5F89EC"/>
            <stop  offset="0.4616" style="stop-color:#7BDDEA"/>
            <stop  offset="0.53" style="stop-color:#7BDDEA"/>
            <stop  offset="1" style="stop-color:#5F89EC"/>
	</linearGradient>
        <rect class="st0" width="500" height="500"/>
	</g>
    <g id="Ebene_2">
	<path class="st3" d="M397.7,293.3c-12.4,0-24,4.8-32.7,13.5c-2.5,2.5-4.6,5.2-6.5,8.1l-18.7-17.4v-21.1h22.1l14-14
		c6.5,3.5,13.9,5.4,21.7,5.4c25.5,0,46.3-20.8,46.3-46.3s-20.8-46.3-46.3-46.3s-46.3,20.8-46.3,46.3c0,7.8,2,15.2,5.4,21.7l-6.1,6.1
		h-68.3v-4.8c0-13.4-10.9-24.2-24.3-24.2l0,0H251l0-35.7c0-38.9-31.7-70.6-70.6-70.6c-38.9,0-70.6,31.7-70.6,70.6l0.1,35.7h-2.6
		c-13.4,0-24.2,10.9-24.2,24.3v106.4c0,13.4,10.9,24.2,24.3,24.2l150.9-0.1c13.4,0,24.2-10.9,24.2-24.2v-74.6h30.4v32.9l39,36.3
		c1.3,9.7,5.6,19.2,13.1,26.6c9,9,20.9,13.5,32.7,13.5c11.8,0,23.7-4.5,32.7-13.5c8.7-8.7,13.5-20.4,13.5-32.7
		c0-12.4-4.8-24-13.5-32.7C421.6,298.1,410,293.3,397.7,293.3z M397.7,202.4c10.6,0,19.2,8.6,19.2,19.2c0,10.6-8.6,19.2-19.2,19.2
		s-19.2-8.6-19.2-19.2C378.4,211,387,202.4,397.7,202.4z M180.3,140.2c24.6,0,44.6,20,44.6,44.6l0.1,35.7l-89.1,0.1l-0.1-35.7
		C135.8,160.2,155.8,140.2,180.3,140.2z M220.4,254.9c-0.6,1.3-1.9,2.1-3.3,2.1c-0.6,0-1.2-0.2-1.7-0.5c-11.2-5.8-20.9-8.2-32.5-8.2
		c-11.6,0-22.6,2.8-32.5,8.2c-0.6,0.3-1.2,0.5-1.8,0.5c-1.3,0-2.6-0.7-3.3-1.9c-1-1.8-0.3-4.1,1.5-5.1c11.1-6.1,23.3-9.1,36.1-9.1
		c12.7,0,23.8,2.8,35.9,9.1c0.9,0.5,1.6,1.3,1.9,2.2C220.9,253,220.8,254,220.4,254.9z M172.3,358c-0.8,0.7-1.8,1.1-2.8,1.1
		c-1,0-2-0.4-2.7-1.1c-5.1-5.1-7.9-8.5-12-15.7c-4.1-7.3-6.3-16.3-6.3-26c0-18,15.3-32.6,34.2-32.6s34.2,14.6,34.2,32.6
		c0,2.1-1.6,3.7-3.7,3.7c-2.1,0-3.7-1.6-3.7-3.7c0-13.8-12-25.1-26.7-25.1c-14.7,0-26.7,11.3-26.7,25.1c0,8.4,1.9,16.1,5.4,22.3
		c3.7,6.6,6.1,9.4,10.8,14.1C173.7,354.2,173.7,356.5,172.3,358z M221.6,345.9c-0.6,0.8-1.4,1.4-2.5,1.6c-3.5,0.7-6.4,0.7-7.3,0.7
		c-7.2,0-13.5-1.8-18.7-5.4c-9-6.1-14.4-16-14.4-26.6c0-2.1,1.6-3.7,3.7-3.7c2.1,0,3.7,1.6,3.7,3.7c0,8.1,4.1,15.7,11.1,20.4
		c4,2.7,8.8,4.1,14.5,4.1c1.2,0,3.6-0.2,6-0.6c1-0.2,2,0,2.8,0.6c0.8,0.6,1.4,1.4,1.6,2.5C222.3,344.1,222.1,345.1,221.6,345.9z
		 M213.1,334.4c-10.5,0-19-8.1-19-18.1c0-5.9-5.2-10.7-11.5-10.7c-6.3,0-11.5,4.8-11.5,10.7c0,9.9,3.8,19.1,10.8,26.1
		c5.5,5.5,10.8,8.5,18.9,10.7c0.9,0.2,1.7,0.8,2.2,1.7c0.5,0.9,0.6,1.9,0.4,2.9c-0.4,1.6-1.8,2.8-3.5,2.8c-0.3,0-0.6,0-1-0.1
		c-9.5-2.6-15.8-6.2-22.3-12.6c-8.4-8.3-13-19.5-13-31.4c0-10,8.5-18.1,19-18.1c10.5,0,19,8.1,19,18.1c0,5.9,5.2,10.7,11.5,10.7
		c6.3,0,11.5-4.8,11.5-10.7c0-21.8-18.8-39.5-42-39.5c-16.5,0-31.5,9.2-38.3,23.3c-2.3,4.7-3.4,10.1-3.4,16.2c0,4.6,0.4,11.7,3.9,21
		c0.4,1,0.3,2-0.1,2.9c-0.4,0.9-1.2,1.6-2.1,1.9c-0.9,0.3-1.9,0.3-2.8-0.1c-0.9-0.4-1.6-1.2-1.9-2.1c-2.9-7.8-4.4-15.6-4.4-23.6
		c0-7.2,1.4-13.7,4.1-19.5c8-16.8,25.7-27.6,45-27.6c27.3,0,49.5,21.1,49.5,47C232,326.2,223.5,334.4,213.1,334.4z M236.6,284.6
		c-0.2,1-0.7,1.9-1.5,2.4c-1.7,1.2-4,0.8-5.2-0.9c-5.2-7.3-11.9-13.1-19.7-17.1c-16.7-8.5-38.2-8.5-54.7,0.1
		c-7.9,4-14.5,9.8-19.8,17.2c-0.5,1-1.7,1.6-2.9,1.6c-0.8,0-1.5-0.2-2.1-0.7c-1.7-1.2-2.1-3.5-0.9-5.2c5.9-8.4,13.5-15,22.4-19.5
		c18.7-9.6,42.9-9.7,61.6-0.1c9,4.6,16.5,11.1,22.4,19.4C236.5,282.6,236.8,283.7,236.6,284.6z M411.3,353.2
		c-7.5,7.5-19.7,7.5-27.2,0c-7.5-7.5-7.5-19.7,0-27.2c3.6-3.6,8.5-5.6,13.6-5.6c5.1,0,10,2,13.6,5.6c3.6,3.6,5.6,8.5,5.6,13.6
		C416.9,344.7,414.9,349.6,411.3,353.2z"/>
</g>
</svg>
